<svg width="215" height="81" viewBox="0 0 215 81" fill="none" xmlns="http://www.w3.org/2000/svg">
<path d="M3.4998 0.5H0.299805V80.5H3.4998V0.5Z" fill="black"/>
<path d="M6.69961 0.5H5.09961V80.5H6.69961V0.5Z" fill="black"/>
<path d="M11.4999 0.5H9.8999V80.5H11.4999V0.5Z" fill="black"/>
<path d="M19.4999 0.5H17.8999V80.5H19.4999V0.5Z" fill="black"/>
<path d="M24.2996 0.5H21.0996V80.5H24.2996V0.5Z" fill="black"/>
<path d="M29.1 0.5H27.5V80.5H29.1V0.5Z" fill="black"/>
<path d="M38.7 0.5H35.5V80.5H38.7V0.5Z" fill="black"/>
<path d="M46.6999 0.5H41.8999V80.5H46.6999V0.5Z" fill="black"/>
<path d="M51.4999 0.5H49.8999V80.5H51.4999V0.5Z" fill="black"/>
<path d="M54.6999 0.5H53.0999V80.5H54.6999V0.5Z" fill="black"/>
<path d="M59.4998 0.5H56.2998V80.5H59.4998V0.5Z" fill="black"/>
<path d="M64.2997 0.5H62.6997V80.5H64.2997V0.5Z" fill="black"/>
<path d="M73.8997 0.5H70.6997V80.5H73.8997V0.5Z" fill="black"/>
<path d="M81.8998 0.5H80.2998V80.5H81.8998V0.5Z" fill="black"/>
<path d="M85.0998 0.5H83.4998V80.5H85.0998V0.5Z" fill="black"/>
<path d="M89.8998 0.5H88.2998V80.5H89.8998V0.5Z" fill="black"/>
<path d="M97.8999 0.5H93.0999V80.5H97.8999V0.5Z" fill="black"/>
<path d="M104.3 0.5H101.1V80.5H104.3V0.5Z" fill="black"/>
<path d="M107.5 0.5H105.9V80.5H107.5V0.5Z" fill="black"/>
<path d="M117.1 0.5H113.9V80.5H117.1V0.5Z" fill="black"/>
<path d="M121.9 0.5H120.3V80.5H121.9V0.5Z" fill="black"/>
<path d="M126.7 0.5H123.5V80.5H126.7V0.5Z" fill="black"/>
<path d="M134.7 0.5H133.1V80.5H134.7V0.5Z" fill="black"/>
<path d="M139.5 0.5H137.9V80.5H139.5V0.5Z" fill="black"/>
<path d="M144.3 0.5H141.1V80.5H144.3V0.5Z" fill="black"/>
<path d="M152.3 0.5H147.5V80.5H152.3V0.5Z" fill="black"/>
<path d="M157.1 0.5H155.5V80.5H157.1V0.5Z" fill="black"/>
<path d="M160.3 0.5H158.7V80.5H160.3V0.5Z" fill="black"/>
<path d="M165.1 0.5H161.9V80.5H165.1V0.5Z" fill="black"/>
<path d="M169.9 0.5H168.3V80.5H169.9V0.5Z" fill="black"/>
<path d="M179.5 0.5H176.3V80.5H179.5V0.5Z" fill="black"/>
<path d="M187.5 0.5H185.9V80.5H187.5V0.5Z" fill="black"/>
<path d="M190.7 0.5H189.1V80.5H190.7V0.5Z" fill="black"/>
<path d="M195.5 0.5H193.9V80.5H195.5V0.5Z" fill="black"/>
<path d="M205.1 0.5H201.9V80.5H205.1V0.5Z" fill="black"/>
<path d="M209.9 0.5H208.3V80.5H209.9V0.5Z" fill="black"/>
<path d="M214.7 0.5H211.5V80.5H214.7V0.5Z" fill="black"/>
</svg>
