<svg width="24" height="24" viewBox="0 0 24 24" fill="none" xmlns="http://www.w3.org/2000/svg">
<path d="M12 20.5C13.25 20.5 14.3125 20.0625 15.1875 19.1875C16.0625 18.3125 16.5 17.25 16.5 16C16.5 14.75 16.0625 13.6875 15.1875 12.8125C14.3125 11.9375 13.25 11.5 12 11.5C10.75 11.5 9.6875 11.9375 8.8125 12.8125C7.9375 13.6875 7.5 14.75 7.5 16C7.5 17.25 7.9375 18.3125 8.8125 19.1875C9.6875 20.0625 10.75 20.5 12 20.5ZM12 18.5C11.3 18.5 10.7083 18.2583 10.225 17.775C9.74167 17.2917 9.5 16.7 9.5 16C9.5 15.3 9.74167 14.7083 10.225 14.225C10.7083 13.7417 11.3 13.5 12 13.5C12.7 13.5 13.2917 13.7417 13.775 14.225C14.2583 14.7083 14.5 15.3 14.5 16C14.5 16.7 14.2583 17.2917 13.775 17.775C13.2917 18.2583 12.7 18.5 12 18.5ZM4 24C3.45 24 2.97917 23.8042 2.5875 23.4125C2.19583 23.0208 2 22.55 2 22V10C2 9.45 2.19583 8.97917 2.5875 8.5875C2.97917 8.19583 3.45 8 4 8H7.15L9 6H15L16.85 8H20C20.55 8 21.0208 8.19583 21.4125 8.5875C21.8042 8.97917 22 9.45 22 10V22C22 22.55 21.8042 23.0208 21.4125 23.4125C21.0208 23.8042 20.55 24 20 24H4Z" fill="#5F6368"/>
</svg>
